<?xml version="1.0" encoding="UTF-8" standalone="no"?>
<!DOCTYPE svg PUBLIC "-//W3C//DTD SVG 1.1//EN" "http://www.w3.org/Graphics/SVG/1.1/DTD/svg11.dtd">
<svg version="1.1" xmlns="http://www.w3.org/2000/svg" xmlns:xlink="http://www.w3.org/1999/xlink" preserveAspectRatio="xMidYMid meet" viewBox="0 0 200 200" width="200" height="200"><defs><path d="M200 100C200 155.19 155.19 200 100 200C44.81 200 0 155.19 0 100C0 44.81 44.81 0 100 0C155.19 0 200 44.81 200 100Z" id="a5xuqDhjq"></path><path d="M110.01 35.01L110.14 35.03L110.26 35.05L110.37 35.08L110.49 35.12L110.6 35.16L110.71 35.21L110.81 35.26L110.91 35.32L111.01 35.38L111.11 35.45L111.2 35.53L111.29 35.61L111.37 35.69L111.46 35.78L111.54 35.88L111.62 35.98L111.7 36.08L111.77 36.19L111.85 36.3L111.92 36.42L111.99 36.54L112.06 36.66L112.12 36.79L112.19 36.92L112.25 37.06L112.32 37.2L112.38 37.34L112.44 37.48L112.5 37.63L112.55 37.78L112.61 37.93L112.67 38.09L112.72 38.24L112.78 38.4L112.84 38.57L112.89 38.73L112.95 38.9L113 39.06L115.81 49.61L116.69 49.88L118.64 50.57L120.56 51.34L122.43 52.18L124.27 53.08L124.42 53.16L133.9 47.68L134.05 47.6L134.21 47.52L134.36 47.44L134.52 47.37L134.67 47.3L134.82 47.22L134.97 47.15L135.12 47.09L135.27 47.02L135.41 46.96L135.56 46.9L135.7 46.84L135.84 46.79L135.98 46.74L136.12 46.69L136.26 46.65L136.4 46.61L136.53 46.57L136.66 46.54L136.79 46.52L136.92 46.49L137.05 46.47L137.18 46.46L137.3 46.45L137.43 46.45L137.55 46.45L137.67 46.46L137.79 46.47L137.91 46.49L138.02 46.51L138.13 46.54L138.24 46.57L138.35 46.62L138.46 46.67L138.57 46.72L138.67 46.78L138.77 46.85L138.87 46.93L138.97 47.01L139.07 47.1L152.86 60.89L152.95 60.99L153.03 61.09L153.11 61.19L153.18 61.29L153.25 61.4L153.3 61.51L153.36 61.62L153.4 61.73L153.44 61.85L153.47 61.96L153.5 62.08L153.52 62.2L153.54 62.32L153.55 62.45L153.55 62.57L153.55 62.7L153.55 62.83L153.54 62.96L153.52 63.09L153.5 63.22L153.48 63.36L153.45 63.49L153.41 63.63L153.38 63.77L153.33 63.9L153.29 64.04L153.24 64.18L153.18 64.33L153.12 64.47L153.06 64.61L153 64.75L152.93 64.9L152.86 65.04L152.79 65.19L152.71 65.33L152.63 65.48L152.55 65.63L152.46 65.77L152.37 65.92L152.28 66.06L146.81 75.52L146.92 75.73L147.82 77.57L148.66 79.44L149.43 81.36L150.12 83.31L150.39 84.19L160.94 87L161.1 87.04L161.27 87.08L161.43 87.12L161.6 87.17L161.76 87.22L161.91 87.26L162.07 87.31L162.22 87.37L162.37 87.42L162.52 87.47L162.66 87.53L162.8 87.59L162.94 87.65L163.08 87.72L163.21 87.78L163.34 87.85L163.46 87.92L163.58 88L163.7 88.07L163.81 88.15L163.92 88.23L164.02 88.31L164.12 88.39L164.22 88.48L164.31 88.57L164.39 88.66L164.47 88.76L164.55 88.86L164.62 88.96L164.68 89.06L164.74 89.16L164.79 89.27L164.84 89.38L164.88 89.5L164.92 89.62L164.95 89.74L164.97 89.86L164.99 89.99L165 90.12L165 90.25L165 109.75L165 109.88L164.99 110.01L164.97 110.14L164.95 110.26L164.92 110.37L164.88 110.49L164.84 110.6L164.79 110.71L164.74 110.81L164.68 110.91L164.62 111.01L164.55 111.11L164.47 111.2L164.39 111.29L164.31 111.37L164.22 111.46L164.12 111.54L164.02 111.62L163.92 111.7L163.81 111.77L163.7 111.85L163.58 111.92L163.46 111.99L163.34 112.06L163.21 112.12L163.08 112.19L162.94 112.25L162.8 112.32L162.66 112.38L162.52 112.44L162.37 112.5L162.22 112.55L162.07 112.61L161.91 112.67L161.76 112.72L161.6 112.78L161.43 112.84L161.27 112.89L161.1 112.95L160.94 113L150.39 115.81L150.12 116.69L149.43 118.64L148.66 120.56L147.82 122.43L146.92 124.27L146.82 124.46L152.28 133.9L152.37 134.04L152.46 134.19L152.55 134.34L152.63 134.48L152.71 134.63L152.79 134.77L152.86 134.92L152.93 135.06L153 135.21L153.06 135.35L153.12 135.49L153.18 135.64L153.24 135.78L153.29 135.92L153.33 136.06L153.38 136.2L153.41 136.33L153.45 136.47L153.48 136.6L153.5 136.74L153.52 136.87L153.54 137L153.55 137.13L153.55 137.26L153.55 137.39L153.55 137.51L153.54 137.64L153.52 137.76L153.5 137.88L153.47 138L153.44 138.12L153.4 138.23L153.36 138.34L153.3 138.45L153.25 138.56L153.18 138.67L153.11 138.77L153.03 138.87L152.95 138.97L152.86 139.07L139.07 152.86L138.97 152.95L138.87 153.03L138.77 153.11L138.67 153.18L138.57 153.24L138.46 153.3L138.35 153.34L138.24 153.39L138.13 153.42L138.02 153.45L137.91 153.48L137.79 153.49L137.67 153.51L137.55 153.51L137.43 153.51L137.3 153.51L137.18 153.5L137.05 153.49L136.92 153.47L136.79 153.45L136.66 153.42L136.53 153.39L136.4 153.35L136.26 153.31L136.12 153.27L135.98 153.22L135.84 153.17L135.7 153.12L135.56 153.06L135.41 153L135.27 152.94L135.12 152.87L134.97 152.81L134.82 152.74L134.67 152.67L134.52 152.59L134.36 152.52L134.21 152.44L134.05 152.36L133.9 152.28L124.46 146.82L124.27 146.92L122.43 147.82L120.56 148.66L118.64 149.43L116.69 150.12L115.81 150.39L113 160.94L112.95 161.1L112.89 161.27L112.84 161.43L112.78 161.6L112.72 161.76L112.67 161.91L112.61 162.07L112.55 162.22L112.5 162.37L112.44 162.52L112.38 162.66L112.32 162.8L112.25 162.94L112.19 163.08L112.12 163.21L112.06 163.34L111.99 163.46L111.92 163.58L111.85 163.7L111.77 163.81L111.7 163.92L111.62 164.02L111.54 164.12L111.46 164.22L111.37 164.31L111.29 164.39L111.2 164.47L111.11 164.55L111.01 164.62L110.91 164.68L110.81 164.74L110.71 164.79L110.6 164.84L110.49 164.88L110.37 164.92L110.26 164.95L110.14 164.97L110.01 164.99L109.88 165L109.75 165L90.25 165L90.12 165L89.99 164.99L89.86 164.97L89.74 164.95L89.62 164.92L89.5 164.88L89.38 164.84L89.27 164.79L89.16 164.74L89.06 164.68L88.96 164.62L88.86 164.55L88.76 164.47L88.66 164.39L88.57 164.31L88.48 164.22L88.39 164.12L88.31 164.02L88.23 163.92L88.15 163.81L88.07 163.7L88 163.58L87.92 163.46L87.85 163.34L87.78 163.21L87.72 163.08L87.65 162.94L87.59 162.8L87.53 162.66L87.47 162.52L87.42 162.37L87.37 162.22L87.31 162.07L87.26 161.91L87.22 161.76L87.17 161.6L87.12 161.43L87.08 161.27L87.04 161.1L87 160.94L84.19 150.39L83.31 150.12L81.36 149.43L79.44 148.66L77.57 147.82L75.73 146.92L75.51 146.8L66.1 152.24L65.96 152.33L65.81 152.42L65.66 152.51L65.52 152.59L65.37 152.67L65.23 152.75L65.08 152.82L64.94 152.89L64.79 152.96L64.65 153.02L64.51 153.09L64.36 153.14L64.22 153.2L64.08 153.25L63.94 153.29L63.8 153.34L63.67 153.37L63.53 153.41L63.4 153.44L63.26 153.46L63.13 153.48L63 153.5L62.87 153.51L62.74 153.51L62.61 153.51L62.49 153.51L62.36 153.5L62.24 153.48L62.12 153.46L62 153.43L61.88 153.4L61.77 153.36L61.66 153.32L61.55 153.26L61.44 153.21L61.33 153.14L61.23 153.07L61.13 152.99L61.03 152.91L60.93 152.82L47.14 139.03L47.05 138.93L46.97 138.83L46.89 138.73L46.82 138.63L46.76 138.53L46.7 138.42L46.66 138.32L46.61 138.21L46.58 138.09L46.55 137.98L46.52 137.87L46.51 137.75L46.49 137.63L46.49 137.51L46.49 137.39L46.49 137.27L46.5 137.14L46.51 137.01L46.53 136.89L46.55 136.76L46.58 136.62L46.61 136.49L46.65 136.36L46.69 136.22L46.73 136.08L46.78 135.94L46.83 135.8L46.88 135.66L46.94 135.52L47 135.37L47.06 135.23L47.13 135.08L47.19 134.93L47.26 134.78L47.33 134.63L47.41 134.48L47.48 134.33L47.56 134.17L47.64 134.02L47.72 133.86L53.17 124.44L53.08 124.27L52.18 122.43L51.34 120.56L50.57 118.64L49.88 116.69L49.61 115.81L39.06 113L38.9 112.95L38.73 112.89L38.57 112.84L38.4 112.78L38.24 112.72L38.09 112.67L37.93 112.61L37.78 112.55L37.63 112.5L37.48 112.44L37.34 112.38L37.2 112.32L37.06 112.25L36.92 112.19L36.79 112.12L36.66 112.06L36.54 111.99L36.42 111.92L36.3 111.85L36.19 111.77L36.08 111.7L35.98 111.62L35.88 111.54L35.78 111.46L35.69 111.37L35.61 111.29L35.53 111.2L35.45 111.11L35.38 111.01L35.32 110.91L35.26 110.81L35.21 110.71L35.16 110.6L35.12 110.49L35.08 110.37L35.05 110.26L35.03 110.14L35.01 110.01L35 109.88L35 109.75L35 90.25L35 90.12L35.01 89.99L35.03 89.86L35.05 89.74L35.08 89.62L35.12 89.5L35.16 89.38L35.21 89.27L35.26 89.16L35.32 89.06L35.38 88.96L35.45 88.86L35.53 88.76L35.61 88.66L35.69 88.57L35.78 88.48L35.88 88.39L35.98 88.31L36.08 88.23L36.19 88.15L36.3 88.07L36.42 88L36.54 87.92L36.66 87.85L36.79 87.78L36.92 87.72L37.06 87.65L37.2 87.59L37.34 87.53L37.48 87.47L37.63 87.42L37.78 87.37L37.93 87.31L38.09 87.26L38.24 87.22L38.4 87.17L38.57 87.12L38.73 87.08L38.9 87.04L39.06 87L49.61 84.19L49.88 83.31L50.57 81.36L51.34 79.44L52.18 77.57L53.08 75.73L53.18 75.54L47.72 66.1L47.64 65.95L47.56 65.79L47.48 65.64L47.41 65.48L47.33 65.33L47.26 65.18L47.19 65.03L47.13 64.88L47.06 64.73L47 64.59L46.94 64.44L46.88 64.3L46.83 64.16L46.78 64.02L46.73 63.88L46.69 63.74L46.65 63.6L46.61 63.47L46.58 63.34L46.55 63.21L46.53 63.08L46.51 62.95L46.5 62.82L46.49 62.7L46.49 62.57L46.49 62.45L46.49 62.33L46.51 62.21L46.52 62.09L46.55 61.98L46.58 61.87L46.61 61.76L46.66 61.65L46.7 61.54L46.76 61.43L46.82 61.33L46.89 61.23L46.97 61.13L47.05 61.03L47.14 60.93L60.93 47.14L61.03 47.05L61.13 46.97L61.23 46.89L61.33 46.82L61.44 46.75L61.55 46.7L61.66 46.64L61.77 46.6L61.88 46.56L62 46.53L62.12 46.5L62.24 46.48L62.36 46.46L62.49 46.45L62.61 46.45L62.74 46.45L62.87 46.45L63 46.46L63.13 46.48L63.26 46.5L63.4 46.52L63.53 46.55L63.67 46.59L63.8 46.62L63.94 46.67L64.08 46.71L64.22 46.76L64.36 46.82L64.51 46.88L64.65 46.94L64.79 47L64.94 47.07L65.08 47.14L65.23 47.21L65.37 47.29L65.52 47.37L65.66 47.45L65.81 47.54L65.96 47.63L66.1 47.72L75.54 53.18L75.73 53.08L77.57 52.18L79.44 51.34L81.36 50.57L83.31 49.88L84.19 49.61L87 39.06L87.04 38.9L87.08 38.73L87.12 38.57L87.17 38.4L87.22 38.24L87.26 38.09L87.31 37.93L87.37 37.78L87.42 37.63L87.47 37.48L87.53 37.34L87.59 37.2L87.65 37.06L87.72 36.92L87.78 36.79L87.85 36.66L87.92 36.54L88 36.42L88.07 36.3L88.15 36.19L88.23 36.08L88.31 35.98L88.39 35.88L88.48 35.78L88.57 35.69L88.66 35.61L88.76 35.53L88.86 35.45L88.96 35.38L89.06 35.32L89.16 35.26L89.27 35.21L89.38 35.16L89.5 35.12L89.62 35.08L89.74 35.05L89.86 35.03L89.99 35.01L90.12 35L90.25 35L109.75 35L109.88 35L110.01 35.01ZM97.67 71.66L96.52 71.77L95.39 71.93L94.27 72.14L93.17 72.39L92.08 72.68L91.01 73.01L89.96 73.39L88.93 73.8L87.92 74.25L86.93 74.74L85.96 75.26L85.02 75.82L84.1 76.42L83.21 77.05L82.34 77.71L81.49 78.41L80.68 79.13L79.89 79.89L79.13 80.68L78.41 81.49L77.71 82.34L77.05 83.21L76.42 84.1L75.82 85.02L75.26 85.96L74.74 86.93L74.25 87.92L73.8 88.93L73.39 89.96L73.01 91.01L72.68 92.08L72.39 93.17L72.14 94.27L71.93 95.39L71.77 96.52L71.66 97.67L71.59 98.83L71.56 100L71.59 101.17L71.66 102.33L71.77 103.48L71.93 104.61L72.14 105.73L72.39 106.83L72.68 107.92L73.01 108.99L73.39 110.04L73.8 111.07L74.25 112.08L74.74 113.07L75.26 114.04L75.82 114.98L76.42 115.9L77.05 116.79L77.71 117.66L78.41 118.51L79.13 119.32L79.89 120.11L80.68 120.87L81.49 121.59L82.34 122.29L83.21 122.95L84.1 123.58L85.02 124.18L85.96 124.74L86.93 125.26L87.92 125.75L88.93 126.2L89.96 126.61L91.01 126.99L92.08 127.32L93.17 127.61L94.27 127.86L95.39 128.07L96.52 128.23L97.67 128.34L98.83 128.41L100 128.44L101.17 128.41L102.33 128.34L103.48 128.23L104.61 128.07L105.73 127.86L106.83 127.61L107.92 127.32L108.99 126.99L110.04 126.61L111.07 126.2L112.08 125.75L113.07 125.26L114.04 124.74L114.98 124.18L115.9 123.58L116.79 122.95L117.66 122.29L118.51 121.59L119.32 120.87L120.11 120.11L120.87 119.32L121.59 118.51L122.29 117.66L122.95 116.79L123.58 115.9L124.18 114.98L124.74 114.04L125.26 113.07L125.75 112.08L126.2 111.07L126.61 110.04L126.99 108.99L127.32 107.92L127.61 106.83L127.86 105.73L128.07 104.61L128.23 103.48L128.34 102.33L128.41 101.17L128.44 100L128.41 98.83L128.34 97.67L128.23 96.52L128.07 95.39L127.86 94.27L127.61 93.17L127.32 92.08L126.99 91.01L126.61 89.96L126.2 88.93L125.75 87.92L125.26 86.93L124.74 85.96L124.18 85.02L123.58 84.1L122.95 83.21L122.29 82.34L121.59 81.49L120.87 80.68L120.11 79.89L119.32 79.13L118.51 78.41L117.66 77.71L116.79 77.05L115.9 76.42L114.98 75.82L114.04 75.26L113.07 74.74L112.08 74.25L111.07 73.8L110.04 73.39L108.99 73.01L107.92 72.68L106.83 72.39L105.73 72.14L104.61 71.93L103.48 71.77L102.33 71.66L101.17 71.59L100 71.56L98.83 71.59L97.67 71.66Z" id="a1fZMQmXdU"></path></defs><g><g><g><use xlink:href="#a5xuqDhjq" opacity="1" fill="#374c72" fill-opacity="1"></use></g><g><use xlink:href="#a1fZMQmXdU" opacity="1" fill="#ffffff" fill-opacity="1"></use></g></g></g></svg>